{
    "asset" : {
        "generator" : "Khronos glTF Blender I/O v1.5.0",
        "version" : "2.0"
    },
    "scene" : 0,
    "scenes" : [
        {
            "name" : "Scene",
            "nodes" : [
                0,
                1,
                2,
                7
            ]
        }
    ],
    "nodes" : [
        {
            "name" : "Light",
            "rotation" : [
                0.16907575726509094,
                0.7558803558349609,
                -0.27217137813568115,
                0.570947527885437
            ],
            "translation" : [
                4.076245307922363,
                5.903861999511719,
                -1.0054539442062378
            ]
        },
        {
            "name" : "Camera",
            "rotation" : [
                0.483536034822464,
                0.33687159419059753,
                -0.20870360732078552,
                0.7804827094078064
            ],
            "translation" : [
                7.358891487121582,
                4.958309173583984,
                6.925790786743164
            ]
        },
        {
            "name" : "Cinema4D_\u7f16\u8f91\u5668",
            "rotation" : [
                0.5335417985916138,
                0.3124188184738159,
                -0.22100034356117249,
                0.7542456388473511
            ],
            "scale" : [
                0.02539999969303608,
                0.02539999783039093,
                0.02539999969303608
            ],
            "translation" : [
                126.58394622802734,
                112.85193634033203,
                126.58394622802734
            ]
        },
        {
            "mesh" : 0,
            "name" : "3DXY_geometry_001",
            "rotation" : [
                0.5000000596046448,
                -0.49999991059303284,
                0.4999999403953552,
                0.5000000596046448
            ],
            "translation" : [
                157.0693359375,
                1629.1141357421875,
                -47.99474334716797
            ]
        },
        {
            "mesh" : 1,
            "name" : "3DXY_geometry_002",
            "rotation" : [
                0.5012621879577637,
                -0.5012623071670532,
                0.4987347722053528,
                0.49873435497283936
            ],
            "scale" : [
                1,
                5.524608612060547,
                1
            ],
            "translation" : [
                130.15440368652344,
                1632.5098876953125,
                -46.316287994384766
            ]
        },
        {
            "mesh" : 2,
            "name" : "3DXY_geometry_003",
            "rotation" : [
                0.5012621879577637,
                -0.5012623071670532,
                0.4987347722053528,
                0.49873435497283936
            ],
            "scale" : [
                1,
                5.524608612060547,
                1
            ],
            "translation" : [
                -127.41980743408203,
                1632.509765625,
                -46.3162841796875
            ]
        },
        {
            "mesh" : 3,
            "name" : "3DXY_geometry_004",
            "rotation" : [
                0,
                0.9238794445991516,
                0,
                0.3826839327812195
            ],
            "scale" : [
                440.02569580078125,
                440.0257263183594,
                440.02569580078125
            ],
            "translation" : [
                0,
                -1439.3394775390625,
                0.0001220703125
            ]
        },
        {
            "children" : [
                3,
                4,
                5,
                6
            ],
            "name" : "3DXY_group_001",
            "scale" : [
                0.02539999969303608,
                0.02539999969303608,
                0.02539999969303608
            ],
            "translation" : [
                0,
                49.63454818725586,
                -3.1005859000288183e-06
            ]
        }
    ],
    "materials" : [
        {
            "doubleSided" : true,
            "name" : "3DXY_Material_3",
            "pbrMetallicRoughness" : {
                "baseColorFactor" : [
                    0.6470587849617004,
                    0.3547230362892151,
                    0.031195810064673424,
                    1
                ],
                "metallicFactor" : 0,
                "roughnessFactor" : 0.7621585726737976
            }
        },
        {
            "doubleSided" : true,
            "name" : "3DXY_Material_1",
            "pbrMetallicRoughness" : {
                "baseColorFactor" : [
                    0.800000011920929,
                    0.800000011920929,
                    0.800000011920929,
                    1
                ],
                "metallicFactor" : 0,
                "roughnessFactor" : 0.4343145787715912
            }
        },
        {
            "doubleSided" : true,
            "name" : "3DXY_Material_2",
            "pbrMetallicRoughness" : {
                "baseColorTexture" : {
                    "index" : 0,
                    "texCoord" : 0
                },
                "metallicFactor" : 0,
                "roughnessFactor" : 0.7621585726737976
            }
        }
    ],
    "meshes" : [
        {
            "name" : "\u7f51\u683c",
            "primitives" : [
                {
                    "attributes" : {
                        "POSITION" : 0,
                        "NORMAL" : 1,
                        "TEXCOORD_0" : 2
                    },
                    "indices" : 3,
                    "material" : 0
                }
            ]
        },
        {
            "name" : "\u7f51\u683c.001",
            "primitives" : [
                {
                    "attributes" : {
                        "POSITION" : 4,
                        "NORMAL" : 5,
                        "TEXCOORD_0" : 6
                    },
                    "indices" : 7,
                    "material" : 1
                }
            ]
        },
        {
            "name" : "\u7f51\u683c.002",
            "primitives" : [
                {
                    "attributes" : {
                        "POSITION" : 8,
                        "NORMAL" : 9,
                        "TEXCOORD_0" : 10
                    },
                    "indices" : 11,
                    "material" : 1
                }
            ]
        },
        {
            "name" : "\u7f51\u683c.003",
            "primitives" : [
                {
                    "attributes" : {
                        "POSITION" : 12,
                        "NORMAL" : 13,
                        "TEXCOORD_0" : 14
                    },
                    "indices" : 15,
                    "material" : 2
                }
            ]
        }
    ],
    "textures" : [
        {
            "sampler" : 0,
            "source" : 0
        }
    ],
    "images" : [
        {
            "bufferView" : 16,
            "mimeType" : "image/jpeg",
            "name" : "87440e04b7e8a0d9e8fe87fa2aa4f85dbc6e692050ef5-h00ZSm_fw1200"
        }
    ],
    "accessors" : [
        {
            "bufferView" : 0,
            "componentType" : 5126,
            "count" : 902,
            "max" : [
                743.849853515625,
                300,
                220.01931762695312
            ],
            "min" : [
                -678.0299072265625,
                -3.0860555852996185e-06,
                -325.0019226074219
            ],
            "type" : "VEC3"
        },
        {
            "bufferView" : 1,
            "componentType" : 5126,
            "count" : 902,
            "type" : "VEC3"
        },
        {
            "bufferView" : 2,
            "componentType" : 5126,
            "count" : 902,
            "type" : "VEC2"
        },
        {
            "bufferView" : 3,
            "componentType" : 5123,
            "count" : 2580,
            "type" : "SCALAR"
        },
        {
            "bufferView" : 4,
            "componentType" : 5126,
            "count" : 7924,
            "max" : [
                705.9442749023438,
                9.24026870727539,
                198.1685028076172
            ],
            "min" : [
                -649.2794799804688,
                -9.24026870727539,
                -281.0280456542969
            ],
            "type" : "VEC3"
        },
        {
            "bufferView" : 5,
            "componentType" : 5126,
            "count" : 7924,
            "type" : "VEC3"
        },
        {
            "bufferView" : 6,
            "componentType" : 5126,
            "count" : 7924,
            "type" : "VEC2"
        },
        {
            "bufferView" : 7,
            "componentType" : 5123,
            "count" : 40608,
            "type" : "SCALAR"
        },
        {
            "bufferView" : 8,
            "componentType" : 5126,
            "count" : 8092,
            "max" : [
                705.9442749023438,
                9.24026870727539,
                198.1685028076172
            ],
            "min" : [
                -649.2794799804688,
                -9.24026870727539,
                -281.0280456542969
            ],
            "type" : "VEC3"
        },
        {
            "bufferView" : 9,
            "componentType" : 5126,
            "count" : 8092,
            "type" : "VEC3"
        },
        {
            "bufferView" : 10,
            "componentType" : 5126,
            "count" : 8092,
            "type" : "VEC2"
        },
        {
            "bufferView" : 11,
            "componentType" : 5123,
            "count" : 40608,
            "type" : "SCALAR"
        },
        {
            "bufferView" : 12,
            "componentType" : 5126,
            "count" : 578,
            "max" : [
                3.43176531791687,
                6.664294242858887,
                3.431765079498291
            ],
            "min" : [
                -3.43176531791687,
                -1.1698784828186035,
                -3.43176531791687
            ],
            "type" : "VEC3"
        },
        {
            "bufferView" : 13,
            "componentType" : 5126,
            "count" : 578,
            "type" : "VEC3"
        },
        {
            "bufferView" : 14,
            "componentType" : 5126,
            "count" : 578,
            "type" : "VEC2"
        },
        {
            "bufferView" : 15,
            "componentType" : 5123,
            "count" : 2880,
            "type" : "SCALAR"
        }
    ],
    "bufferViews" : [
        {
            "buffer" : 0,
            "byteLength" : 10824,
            "byteOffset" : 0
        },
        {
            "buffer" : 0,
            "byteLength" : 10824,
            "byteOffset" : 10824
        },
        {
            "buffer" : 0,
            "byteLength" : 7216,
            "byteOffset" : 21648
        },
        {
            "buffer" : 0,
            "byteLength" : 5160,
            "byteOffset" : 28864
        },
        {
            "buffer" : 0,
            "byteLength" : 95088,
            "byteOffset" : 34024
        },
        {
            "buffer" : 0,
            "byteLength" : 95088,
            "byteOffset" : 129112
        },
        {
            "buffer" : 0,
            "byteLength" : 63392,
            "byteOffset" : 224200
        },
        {
            "buffer" : 0,
            "byteLength" : 81216,
            "byteOffset" : 287592
        },
        {
            "buffer" : 0,
            "byteLength" : 97104,
            "byteOffset" : 368808
        },
        {
            "buffer" : 0,
            "byteLength" : 97104,
            "byteOffset" : 465912
        },
        {
            "buffer" : 0,
            "byteLength" : 64736,
            "byteOffset" : 563016
        },
        {
            "buffer" : 0,
            "byteLength" : 81216,
            "byteOffset" : 627752
        },
        {
            "buffer" : 0,
            "byteLength" : 6936,
            "byteOffset" : 708968
        },
        {
            "buffer" : 0,
            "byteLength" : 6936,
            "byteOffset" : 715904
        },
        {
            "buffer" : 0,
            "byteLength" : 4624,
            "byteOffset" : 722840
        },
        {
            "buffer" : 0,
            "byteLength" : 5760,
            "byteOffset" : 727464
        },
        {
            "buffer" : 0,
            "byteLength" : 467435,
            "byteOffset" : 733224
        }
    ],
    "samplers" : [
        {
            "magFilter" : 9729,
            "minFilter" : 9986
        }
    ],
    "buffers" : [
        {
            "byteLength" : 1200660,
            "uri" : "data:application/octet-stream;base64,"
        }
    ]
}
